<svg width="500" height="500" viewBox="0 0 500 500" fill="none" xmlns="http://www.w3.org/2000/svg">
<rect width="500" height="500" fill="#101010"/>
<path fill-rule="evenodd" clip-rule="evenodd" d="M240.862 111.786C260.677 120.276 282.887 116.052 304.252 118.665C333.77 122.275 365.82 115.224 391.589 130.219C418.819 146.064 449.811 171.714 449.999 203.475C450.203 237.744 405.256 254.962 392.517 286.72C382.347 312.074 393.747 341.711 384.27 367.339C373.266 397.098 362.24 433.326 333.529 446.249C304.618 459.26 272.407 434.451 240.862 431.883C212.011 429.534 181.659 443.394 155.116 431.723C128.487 420.015 114.124 391.444 96.2593 368.302C78.5391 345.348 52.4521 324.757 50.1358 295.735C47.7938 266.391 76.4135 243.956 84.0682 215.552C91.343 188.557 84.2519 159.485 93.9186 133.268C105.302 102.395 112.701 55.1292 144.959 50.4133C182.88 44.8695 205.585 96.6711 240.862 111.786Z" fill="white" fill-opacity="0.1"/>
<path d="M180 245C180 229.087 186.321 213.826 197.574 202.574C208.826 191.321 224.087 185 240 185H275L278 181C281.726 176.032 286.557 172 292.111 169.223C297.666 166.446 303.79 165 310 165V195C316.21 199.657 321.25 205.697 324.721 212.639C328.193 219.582 330 227.238 330 235H340C342.652 235 345.196 236.054 347.071 237.929C348.946 239.804 350 242.348 350 245V265C350 267.652 348.946 270.196 347.071 272.071C345.196 273.946 342.652 275 340 275H330C328.449 279.658 325.834 283.891 322.363 287.363C318.891 290.834 314.658 293.449 310 295V325C310 327.652 308.946 330.196 307.071 332.071C305.196 333.946 302.652 335 300 335H280C277.348 335 274.804 333.946 272.929 332.071C271.054 330.196 270 327.652 270 325V305H240V325C240 327.652 238.946 330.196 237.071 332.071C235.196 333.946 232.652 335 230 335H210C207.348 335 204.804 333.946 202.929 332.071C201.054 330.196 200 327.652 200 325V295C193.79 290.343 188.75 284.303 185.279 277.361C181.807 270.418 180 262.762 180 255V245ZM180 245H170C164.696 245 159.609 242.893 155.858 239.142C152.107 235.391 150 230.304 150 225V215M290 235H290.1" stroke="white" stroke-width="12" stroke-linecap="round" stroke-linejoin="round"/>
</svg>
